<svg id="Layer_1" xmlns="http://www.w3.org/2000/svg" viewBox="0 0 56.4 55.6"><style>.st0{fill:#39424e}</style><path class="st0" d="M6 35.6c-.5-1.1-.9-2.2-1.4-3.2-.9-2.2-1.8-4.3-2.7-6.5 0-.1-.1-.2 0-.3l6-10.2c.1-.2.2-.3.3-.4 3.6-3.4 7.2-6.7 10.8-10.1.2-.1.4-.3.6-.3 3.1-1.1 6.1-2.2 9.2-3.4h.3c2.6 1.8 5.1 3.6 7.7 5.4.1.1.1.1.1.2L33 19.1c0 .1-.1.2-.1.2-4.9 4.5-9.7 9-14.6 13.5-.1.1-.2.1-.2.1-3.9.9-7.9 1.8-11.8 2.7H6zM19.6 35.6c6.3 2.4 12.5 4.8 18.7 7.2l-.1.1c-2.7 2.5-5.6 4.7-8.7 6.7-3.8 2.3-7.8 4.1-12.1 5.1-.9.2-1.7.3-2.6.5h-.1c1.6-6.5 3.3-13 4.9-19.6zM35.6 21c6.2-.1 12.3-.3 18.5-.4 0 .1-.1.1-.1.2-1.1 3.1-2.6 6-4.4 8.8-1.5 2.4-3.2 4.6-5.1 6.8-.9 1.1-1.8 2.1-2.7 3.1 0 0 0 .1-.1.1-2.1-6.2-4.1-12.4-6.1-18.6zM21 33.5c4.1-3.9 8.3-7.7 12.4-11.5 2 6.2 4.1 12.4 6.1 18.7-6.2-2.4-12.4-4.8-18.5-7.2zM42.7 42c.4-.4.8-.8 1.1-1.3 2.5-2.7 4.8-5.6 6.9-8.6 1.5-2.2 2.9-4.6 4-7 0-.1.1-.1.1-.2-.7 8.8-1.3 17.6-2 26.4 0-.1 0-.1-.1-.1-.1-.2-.2-.4-.4-.5-3.2-2.8-6.4-5.7-9.6-8.5.1-.1.1-.1 0-.2zM55.1 17c-4.9-3.6-9.9-7.2-14.8-10.7.1 0 .1-.1.2-.1l8.7-4.8h.2c1.2.5 2.4 1.2 3.3 2.1 1.1 1 1.8 2.2 2.3 3.6.5 1.5.8 3 .8 4.6 0 1.3-.2 2.6-.4 3.9 0 .4-.2.9-.3 1.4zM41 43.7c.1 0 .1.1.2.1 3.2 2.9 6.4 5.7 9.7 8.6.2.2.5.4.8.5-8.8.6-17.5 1.2-26.3 1.8h.1c4-1.8 7.6-4.1 11-6.9 1.5-1.2 3-2.6 4.5-3.9-.1-.1-.1-.2 0-.2zM52.7 18.3c-5.7.1-11.4.3-17.1.4l3.3-10.5c4.6 3.3 9.2 6.7 13.8 10.1 0-.1 0-.1 0 0zM17.1 35.6c-1.5 6.1-3.1 12.2-4.6 18.3-1.9-5.3-3.7-10.7-5.6-16 3.4-.8 6.8-1.5 10.2-2.3zM10.4 55.4c-.8-.1-1.6-.2-2.4-.5-1.6-.5-3.1-1.2-4.3-2.4-1.2-1.2-2-2.6-2.5-4.2l-.3-1.2v-.2c1.3-2.3 2.7-4.6 4-6.9.1 0 .1 0 .1-.1 1.8 5.2 3.6 10.3 5.4 15.5zM31.9.2h14.3c-.1.1-.2.1-.2.2-2.5 1.4-5.1 2.8-7.6 4.2-.1.1-.2.1-.3 0-2-1.4-4-2.8-6.1-4.2 0-.1 0-.1-.1-.2zM.5 28.8c.3.6.5 1.2.8 1.9.9 2.1 1.7 4.1 2.6 6.2 0 .1.1.2 0 .3L.6 42.9s0 .1-.1.1V28.8z"/></svg>